<?xml version="1.0" encoding="utf-8"?>
<!-- Generator: Adobe Illustrator 26.3.1, SVG Export Plug-In . SVG Version: 6.00 Build 0)  -->
<svg version="1.1" id="Layer_1" xmlns="http://www.w3.org/2000/svg" xmlns:xlink="http://www.w3.org/1999/xlink" x="0px" y="0px"
	 viewBox="0 0 875.6 91" style="enable-background:new 0 0 875.6 91;" xml:space="preserve">
<style type="text/css">
	.st0{fill:#6DB866;}
</style>
<g>
	<path class="st0" d="M11.5,2.3C11.6,1.1,12.7,0,13.8,0h46.3c1.2,0,2,1.1,1.8,2.3l-2,13.4c-0.1,1.2-1.1,2.3-2.3,2.3H28.4l-2.2,15.2
		h23.8c1.1,0,2,1.1,1.8,2.3l-2,13.4c-0.2,1.4-1.4,2.3-2.5,2.3H23.8L21.4,68h29.3c1.2,0,1.8,1.1,1.7,2.3l-1.8,13.4
		c-0.1,1.2-1.2,2.3-2.5,2.3H1.8c-1.2,0-2-1.1-1.7-2.3L11.5,2.3z"/>
	<path class="st0" d="M58.6,52.5h-4.2c-1.1,0-1.7-1.1-1.6-2.3l1.5-10.9c0.1-1.4,1.2-2.3,2.3-2.3h4.2l1.8-13.6
		c0.1-1.2,1.4-2.3,2.5-2.3h13.8c1.1,0,1.7,1.1,1.6,2.3l-1.8,13.6h7.1c1.2,0,1.8,1,1.7,2.3L86,50.2c-0.1,1.2-1.2,2.3-2.5,2.3h-7.1
		l-2.1,15.2c-0.4,2.7,1.6,3,2.6,3c1.4,0,2.2-0.2,3.3-0.5c1-0.2,2.1,0.2,2.2,1.6l1,9.1c0.2,1.8-0.9,2.9-1.8,3.6
		c-1.2,0.7-7.6,2.8-13.9,2.8c-7.9,0-13.2-5.9-11.6-17.1L58.6,52.5z"/>
	<path class="st0" d="M95.7,2.3C95.8,1.1,97,0,98.1,0h14.1c1.1,0,2,1.1,1.8,2.3L109,38.5c3.6-2.3,7.7-2.8,9.7-2.8
		c13.4,0,20.4,12.2,18.4,25.8L134,83.7c-0.2,1.2-1.4,2.3-2.5,2.3h-13.6c-1.2,0-1.8-1.1-1.7-2.3l3.1-22.3c0.9-5.4-1.6-9.7-6.3-9.7
		c-2.5,0-6.1,1.4-7.3,9.7l-3.1,22.3c-0.2,1.6-0.9,2.3-2.8,2.3H86c-1.1,0-2-1.1-1.7-2.3L95.7,2.3z"/>
	<path class="st0" d="M142.5,39.2c0.2-1.4,1.4-2.3,2.5-2.3h14.1c1.1,0,2,1,1.8,2.3l-6.3,44.5c-0.1,1.2-1.4,2.3-2.5,2.3h-14.1
		c-1.1,0-2-1.1-1.8-2.3L142.5,39.2z M145.8,13.5c0-6,5.2-11.1,10.9-11.1c4.8,0,8.4,3.9,8.4,8.6c0,6.1-5.4,10.9-11.1,10.9
		C149.3,22,145.8,18.2,145.8,13.5z"/>
	<path class="st0" d="M187.1,35.7c7,0,12.4,3.6,16.1,8.9c0.7,1.1,0.2,2.6-1,3.4l-7.7,6.6c-0.5,0.5-1.5,0.5-2.2-0.2
		c-1.6-1.6-3.6-2.6-6-2.6c-4.7,0-9.1,5-9.1,11.3c0,4.5,2.5,8.2,6.1,8.2c3.3,0,5.3-1.8,7.3-3.7c0.5-0.6,1.7-1,2.7,0l6.5,6.5
		c1,1,1.2,2.2,0.4,3.4c-5.2,7-11.3,9.7-19.4,9.7c-11.6,0-21-10-21-22.7C159.7,48.2,172,35.7,187.1,35.7z"/>
	<path class="st0" d="M200.9,80.5l5-9c0.5-0.7,1.6-1.4,2.7-0.7c2.3,1.4,5.7,2.3,8.2,2.3c2.2,0,3.1-1.1,3.1-2.2
		c0-1.6-1.4-2.7-4.9-4.8c-6.6-3.9-10.6-8.1-10.6-14.1c0-8.7,6.9-16.4,19.5-16.4c7.3,0,13.4,2.8,15.2,4.1c0.9,0.6,1,1.6,0.2,2.8
		l-4.8,8.6c-0.5,0.7-1.5,1.1-2.3,0.7c-1.8-0.9-4.9-2.2-8.7-2.2c-1.8,0-2.7,0.7-2.7,1.7c0,1.5,1.5,2.5,3.8,3.8
		c7.5,4.3,13,8.1,13,15.2c0,10-7.1,16.8-21.5,16.8c-7.3,0-13-2.6-14.9-4.2C200.7,82.4,200.2,81.6,200.9,80.5z"/>
	<path class="st0" d="M251.7,63.9c5.8,0,10.1,4.8,10.1,10.4c0,7-6.5,12.9-13.3,12.9c-5.5,0-9.7-4.7-9.7-10.2
		C238.8,70.1,245.2,63.9,251.7,63.9z M249,50.6l-1.2-34.3l2-14c0.1-1.2,1.2-2.3,2.3-2.3h17.6c1.1,0,2,1.1,1.8,2.3l-2,13.8
		l-11.1,34.5c-0.2,1-1.4,2-2.3,2h-5.3C249.8,52.6,249,51.6,249,50.6z"/>
</g>
</svg>
